# xmcd
#
# Track frame offsets: 
#        150
#        20643
#        32927
#        49078
#        72953
#        84150
#        95527
#        108925
#        121074
#        133013
#        158068
#        179772
#        192955
#        205988
#        219915
#        235002
#        246908
#        260227
#        272461
#        286647
#
# Disc length: 3989 seconds
#
# Revision: 1
# Processed by: cddbd v1.5.2PL0 Copyright (c) Steve Scherf et al.
# Submitted via: ExactAudioCopy v0.95b4
#
DISCID=1c0f9314
DTITLE=Various Artist - Viva Latin Jazz
DYEAR=1900
DGENRE=Jazz
TTITLE0=Fred Astair and Oscar Peterson/The Carioca
TTITLE1=Louis Jordan and Ella Fitzgerald/Stone Cold Dead In The Market
TTITLE2=Dizzy Gillespie/Lover Come Back To Me
TTITLE3=Machito/Tanga
TTITLE4=Django Reinhardt/Brazil
TTITLE5=Chet Backer and Gerry Mulligan/The Carioca
TTITLE6=Charlie Parker/Mango Mangue
TTITLE7=Dizzy Gillespie/Tin Tin Daeo
TTITLE8=Chano Pozo/Rumba En Swing
TTITLE9=Howard McGhee and Brew Moore with Machito Orchestra/Cubop City
TTITLE10=Stan Kenton/Cuban Episode
TTITLE11=Dizzy Gillespie/Caravan
TTITLE12=Nat King Cole/Besame Mucho
TTITLE13=Charlie Parker/Okiedode
TTITLE14=Nappy Lamare and His Levee Loungers/Mama Inez
TTITLE15=Oscar Aleman/Besame Mucho
TTITLE16=Duke Ellington/Moonlight Fiesta
TTITLE17=Louis Armstrong/La Cucaracha
TTITLE18=Nat King Cole/Go Bongo
TTITLE19=Andrew Sisters/The Coffee Song
EXTD=
EXTT0=
EXTT1=
EXTT2=
EXTT3=
EXTT4=
EXTT5=
EXTT6=
EXTT7=
EXTT8=
EXTT9=
EXTT10=
EXTT11=
EXTT12=
EXTT13=
EXTT14=
EXTT15=
EXTT16=
EXTT17=
EXTT18=
EXTT19=
PLAYORDER=
